<svg width="308" height="248" viewBox="0 0 308 248" fill="none" xmlns="http://www.w3.org/2000/svg">
<path d="M158.001 247.144C82.476 247.144 21.248 243.564 21.248 239.151C21.248 234.737 82.476 231.157 158.001 231.157C233.525 231.157 294.753 234.737 294.753 239.151C294.753 243.564 233.525 247.144 158.001 247.144Z" fill="#F7F9FE"/>
<path d="M8.30566 0.0546875V191.72C8.30753 192.742 8.71386 193.722 9.43565 194.445C10.1575 195.167 11.1359 195.574 12.1567 195.576H148.345C149.365 195.574 150.343 195.167 151.063 194.444C151.784 193.721 152.189 192.742 152.189 191.72V0.0546875" fill="#F7F9FE"/>
<path d="M160.863 0.0546875V191.72C160.863 192.742 161.268 193.721 161.989 194.444C162.709 195.167 163.687 195.574 164.707 195.576H300.903C301.924 195.574 302.903 195.167 303.626 194.445C304.349 193.723 304.757 192.743 304.761 191.72V0.0546875" fill="#F7F9FE"/>
<path d="M47.2035 231.539H18.1377V231.716H47.2035V231.539Z" fill="#F7F9FE"/>
<path d="M106.449 230.127H77.2988V230.303H106.449V230.127Z" fill="#F7F9FE"/>
<path d="M144.381 230.127H137.328V230.303H144.381V230.127Z" fill="#F7F9FE"/>
<path d="M73.8852 236.157H41.2646V236.334H73.8852V236.157Z" fill="#F7F9FE"/>
<path d="M186.714 231.447H171.479V231.624H186.714V231.447Z" fill="#F7F9FE"/>
<path d="M212.691 231.447H192.991V231.624H212.691V231.447Z" fill="#F7F9FE"/>
<path d="M307.696 234.434H263.656V234.611H307.696V234.434Z" fill="#F7F9FE"/>
<path d="M271.097 35.2485H237.518V58.7416H271.097V35.2485Z" fill="#E6EAF4"/>
<path d="M252.661 35.2485H237.518V58.7416H252.661V35.2485Z" fill="white"/>
<path opacity="0.4" d="M245.078 38.4331C246.067 38.4331 247.034 38.7267 247.856 39.2769C248.678 39.827 249.319 40.6089 249.698 41.5237C250.076 42.4385 250.175 43.4451 249.982 44.4163C249.789 45.3875 249.313 46.2795 248.614 46.9797C247.914 47.6799 247.023 48.1567 246.053 48.3499C245.083 48.543 244.078 48.4439 243.164 48.065C242.25 47.686 241.469 47.0444 240.92 46.221C240.37 45.3977 240.077 44.4298 240.077 43.4396C240.077 42.1118 240.604 40.8384 241.542 39.8995C242.48 38.9606 243.752 38.4331 245.078 38.4331Z" fill="#E6EAF4"/>
<path d="M247.512 53.205C247.512 53.6882 247.368 54.1605 247.1 54.5623C246.832 54.9641 246.451 55.2773 246.005 55.4622C245.559 55.6471 245.069 55.6955 244.595 55.6012C244.122 55.5069 243.687 55.2743 243.346 54.9326C243.004 54.5909 242.772 54.1555 242.678 53.6816C242.584 53.2077 242.632 52.7164 242.817 52.27C243.001 51.8235 243.314 51.4419 243.715 51.1735C244.117 50.905 244.589 50.7617 245.071 50.7617C245.392 50.7608 245.71 50.8234 246.006 50.9458C246.303 51.0683 246.572 51.2482 246.799 51.4753C247.026 51.7023 247.205 51.972 247.328 52.2689C247.45 52.5657 247.513 52.8838 247.512 53.205Z" fill="#E6EAF4"/>
<path d="M245.043 45.2048C245.83 45.2048 246.468 44.5662 246.468 43.7784C246.468 42.9907 245.83 42.3521 245.043 42.3521C244.256 42.3521 243.618 42.9907 243.618 43.7784C243.618 44.5662 244.256 45.2048 245.043 45.2048Z" fill="#E6EAF4"/>
<path d="M199.409 26.8311H184.887V58.7483H199.409V26.8311Z" fill="white"/>
<path d="M218.284 26.8311H199.015V58.7483H218.284V26.8311Z" fill="#E6EAF4"/>
<path d="M192.095 36.9644C192.495 36.963 192.886 37.0804 193.218 37.3018C193.551 37.5231 193.811 37.8385 193.964 38.2078C194.118 38.5771 194.159 38.9837 194.081 39.3762C194.003 39.7686 193.811 40.1291 193.529 40.4119C193.246 40.6948 192.886 40.8873 192.494 40.965C192.102 41.0427 191.696 41.0021 191.327 40.8484C190.958 40.6946 190.643 40.4347 190.422 40.1015C190.201 39.7683 190.084 39.3769 190.085 38.9768C190.087 38.4437 190.299 37.9329 190.676 37.5559C191.052 37.1789 191.563 36.9662 192.095 36.9644V36.9644Z" fill="#E6EAF4"/>
<path d="M192.095 33.8223C192.294 33.8223 192.489 33.8815 192.655 33.9924C192.821 34.1034 192.95 34.2611 193.026 34.4456C193.103 34.6301 193.123 34.8332 193.084 35.029C193.045 35.2249 192.949 35.4048 192.808 35.5461C192.667 35.6873 192.487 35.7834 192.291 35.8224C192.096 35.8614 191.893 35.8414 191.709 35.7649C191.524 35.6885 191.367 35.5591 191.256 35.393C191.145 35.227 191.086 35.0317 191.086 34.832C191.086 34.6994 191.112 34.5681 191.163 34.4456C191.213 34.3231 191.288 34.2118 191.381 34.118C191.475 34.0243 191.586 33.9499 191.709 33.8991C191.831 33.8484 191.962 33.8223 192.095 33.8223Z" fill="#E6EAF4"/>
<path d="M192.095 30.7715C192.294 30.7715 192.489 30.8307 192.655 30.9417C192.821 31.0526 192.95 31.2103 193.026 31.3948C193.103 31.5793 193.123 31.7824 193.084 31.9782C193.045 32.1741 192.949 32.3541 192.808 32.4953C192.667 32.6365 192.487 32.7327 192.291 32.7716C192.096 32.8106 191.893 32.7906 191.709 32.7142C191.524 32.6377 191.367 32.5083 191.256 32.3423C191.145 32.1762 191.086 31.981 191.086 31.7813C191.086 31.6486 191.112 31.5173 191.163 31.3948C191.213 31.2723 191.288 31.161 191.381 31.0672C191.475 30.9735 191.586 30.8991 191.709 30.8484C191.831 30.7976 191.962 30.7715 192.095 30.7715V30.7715Z" fill="#E6EAF4"/>
<path d="M217.937 44.7319H185.211V45.2333H217.937V44.7319Z" fill="#DAE0ED"/>
<path d="M217.937 47.563H185.211V48.0643H217.937V47.563Z" fill="#DAE0ED"/>
<path d="M217.937 50.3945H185.211V50.8959H217.937V50.3945Z" fill="#DAE0ED"/>
<path d="M217.937 53.2266H185.211V53.7279H217.937V53.2266Z" fill="#DAE0ED"/>
<path d="M217.937 56.0581H185.211V56.5595H217.937V56.0581Z" fill="#DAE0ED"/>
<path d="M192.441 45.5933H191.059V46.9773H192.441V45.5933Z" fill="#E6EAF4"/>
<path d="M192.441 48.5732H191.059V49.9573H192.441V48.5732Z" fill="#E6EAF4"/>
<path d="M192.441 51.2563H191.059V52.6404H192.441V51.2563Z" fill="#E6EAF4"/>
<path d="M192.441 54.1514H191.059V55.5354H192.441V54.1514Z" fill="#E6EAF4"/>
<path d="M192.441 56.9619H191.059V58.3459H192.441V56.9619Z" fill="#E6EAF4"/>
<path d="M157.14 90.1643H156.435V63.1265C156.436 61.6663 157.017 60.2664 158.048 59.2339C159.079 58.2014 160.478 57.6205 161.936 57.6187H185.211V58.3248H161.936C160.665 58.3267 159.446 58.8331 158.547 59.7332C157.648 60.6333 157.142 61.8536 157.14 63.1265V90.1643Z" fill="#F7F9FE"/>
<path d="M155.73 90.2135H155.024V62.9285C155.026 61.1575 155.73 59.4595 156.981 58.2071C158.232 56.9548 159.928 56.2504 161.697 56.2485H185.212V56.9547H161.697C160.115 56.9565 158.598 57.5865 157.479 58.7064C156.361 59.8264 155.732 61.3447 155.73 62.9285V90.2135Z" fill="#F7F9FE"/>
<path d="M78.4983 22.3755H56.415V45.9109H78.4983V22.3755Z" fill="#E6EAF4"/>
<path d="M84.1546 22.3755H78.498V45.9109H84.1546V22.3755Z" fill="white"/>
<path d="M67.2129 18.7461H50.624V45.911H67.2129V18.7461Z" fill="#E6EAF4"/>
<path d="M72.0022 18.7461H67.2061V45.911H72.0022V18.7461Z" fill="white"/>
<path d="M62.3252 22.3755H48.3389V45.9109H62.3252V22.3755Z" fill="#DAE0ED"/>
<path d="M65.5202 22.3755H62.3252V45.9109H65.5202V22.3755Z" fill="white"/>
<path d="M50.8783 26.3579H32.5332V45.9107H50.8783V26.3579Z" fill="#E6EAF4"/>
<path d="M55.5753 26.3579H50.8779V45.9107H55.5753V26.3579Z" fill="white"/>
<path d="M41.5044 23.3428H27.7227V45.9108H41.5044V23.3428Z" fill="#E6EAF4"/>
<path d="M45.4821 23.3428H41.4971V45.9108H45.4821V23.3428Z" fill="white"/>
<path d="M37.4415 26.3579H24.0547V45.9107H37.4415V26.3579Z" fill="#E6EAF4"/>
<path d="M40.1012 26.3579H37.4492V45.9107H40.1012V26.3579Z" fill="white"/>
<path d="M8.4117 52.7109L152.295 52.7109V45.8967L8.4117 45.8967V52.7109Z" fill="#E6EAF4"/>
<path d="M34.2334 52.8735H42.1893L36.3916 61.6366H34.2334V52.8735Z" fill="#F7F9FE"/>
<path d="M34.2327 52.8735H33.083V61.6366H34.2327V52.8735Z" fill="#F7F9FE"/>
<path d="M123.603 52.8735H131.558L125.761 61.6366H123.603V52.8735Z" fill="#F7F9FE"/>
<path d="M123.603 52.8735H122.453V61.6366H123.603V52.8735Z" fill="#F7F9FE"/>
<path d="M304.811 58.7485H160.928V65.5627H304.811V58.7485Z" fill="#E6EAF4"/>
<path d="M278.989 74.4809H276.831L271.026 65.7178H278.989V74.4809Z" fill="#F7F9FE"/>
<path d="M280.139 65.7178H278.989V74.4809H280.139V65.7178Z" fill="#F7F9FE"/>
<path d="M189.62 74.4809H187.462L181.664 65.7178H189.62V74.4809Z" fill="#F7F9FE"/>
<path d="M190.769 65.7178H189.619V74.4809H190.769V65.7178Z" fill="#F7F9FE"/>
<path d="M119.463 32.1838C119.463 31.1716 119.314 30.1649 119.018 29.1969L121.635 26.8949L119.991 24.035L116.691 25.1578C115.301 23.6704 113.502 22.6285 111.521 22.1638L110.815 18.7461H107.522L106.816 22.1638C104.837 22.6286 103.041 23.6706 101.653 25.1578L98.3455 24.035L96.7021 26.8949L99.3189 29.1969C98.7266 31.144 98.7266 33.2236 99.3189 35.1707L96.7021 37.4727L98.3455 40.3326L101.653 39.2098C103.041 40.697 104.837 41.739 106.816 42.2038L107.522 45.6215H110.815L111.521 42.2038C113.502 41.7391 115.301 40.6972 116.691 39.2098L119.991 40.3326L121.635 37.4727L119.018 35.1707C119.314 34.2027 119.463 33.196 119.463 32.1838V32.1838ZM109.193 37.734C108.137 37.734 107.105 37.4205 106.227 36.8331C105.349 36.2458 104.665 35.4109 104.26 34.4342C103.856 33.4574 103.751 32.3826 103.957 31.3457C104.163 30.3088 104.671 29.3564 105.418 28.6088C106.165 27.8612 107.116 27.3521 108.152 27.1459C109.187 26.9396 110.261 27.0455 111.236 27.4501C112.212 27.8546 113.046 28.5398 113.633 29.4188C114.219 30.2979 114.532 31.3314 114.532 32.3886C114.532 33.8063 113.97 35.1659 112.969 36.1684C111.967 37.1708 110.609 37.734 109.193 37.734Z" fill="#DAE0ED"/>
<path d="M137.279 33.9136C136.936 33.3434 136.507 32.829 136.009 32.3884L136.714 30.1923L134.81 29.1543L133.336 30.9196C132.048 30.5606 130.683 30.595 129.414 31.0185L127.856 29.3379L126.001 30.4677L126.791 32.6214C125.84 33.5653 125.187 34.7687 124.915 36.0815L122.679 36.5899L122.735 38.7577L124.999 39.1531C125.336 40.4484 126.048 41.6151 127.045 42.5073L126.339 44.7033L128.244 45.7414L129.718 43.976C131.009 44.328 132.375 44.2936 133.646 43.8772L135.205 45.5578L137.053 44.428L136.263 42.2672C137.214 41.3259 137.866 40.1249 138.139 38.8142L140.375 38.3058L140.319 36.1309L138.062 35.7425C137.896 35.0963 137.632 34.4795 137.279 33.9136V33.9136ZM133.421 40.5654C132.826 40.9317 132.136 41.113 131.439 41.0864C130.741 41.0598 130.067 40.8265 129.502 40.416C128.937 40.0056 128.506 39.4364 128.264 38.7807C128.023 38.125 127.981 37.4122 128.144 36.7326C128.307 36.053 128.668 35.4373 129.181 34.9633C129.694 34.4894 130.337 34.1785 131.026 34.0702C131.716 33.9619 132.422 34.061 133.056 34.355C133.689 34.6489 134.221 35.1244 134.584 35.7213C135.07 36.5187 135.22 37.4761 135.001 38.3839C134.783 39.2918 134.215 40.0761 133.421 40.5654V40.5654Z" fill="#DAE0ED"/>
<path d="M307.996 147.446H20.498V151.068H307.996V147.446Z" fill="#0B1C52"/>
<path d="M64.1006 152.869V232.902H66.3435L69.1647 152.869H64.1006Z" fill="#407BFF"/>
<path opacity="0.5" d="M64.1006 152.869V232.902H66.3435L69.1647 152.869H64.1006Z" fill="black"/>
<path d="M291.894 150.044V236.433H289.658L286.83 150.044H291.894Z" fill="#0B1C52"/>
<path d="M265.423 152.869V232.902H263.181L260.359 152.869H265.423Z" fill="#407BFF"/>
<path d="M265.423 152.869V232.902H263.181L260.359 152.869H265.423Z" fill="#0B1C52"/>
<path d="M297.008 154.945H32.3336L26.4795 151.068H302.862L297.008 154.945Z" fill="#407BFF"/>
<path opacity="0.5" d="M297.008 154.945H32.3336L26.4795 151.068H302.862L297.008 154.945Z" fill="black"/>
<path d="M296.132 138.718C296.041 135.894 293.911 135.23 291.132 134.912V133.888C291.128 133.77 291.078 133.657 290.992 133.575C290.906 133.493 290.792 133.449 290.673 133.45H281.067C281.008 133.449 280.949 133.458 280.893 133.479C280.838 133.5 280.787 133.532 280.744 133.573C280.7 133.613 280.666 133.662 280.641 133.716C280.617 133.77 280.603 133.829 280.602 133.888V133.888V147.241H291.139V145.78C293.918 145.469 296.048 141.529 296.132 138.718ZM291.132 144.057V136.642C293.177 136.939 294.588 137.221 294.285 139.269C294.045 140.907 292.761 143.831 291.132 144.057V144.057Z" fill="#407BFF"/>
<g opacity="0.5">
<path d="M296.132 138.718C296.041 135.894 293.911 135.23 291.132 134.912V133.888C291.128 133.77 291.078 133.657 290.992 133.575C290.906 133.493 290.792 133.449 290.673 133.45H281.067C281.008 133.449 280.949 133.458 280.893 133.479C280.838 133.5 280.787 133.532 280.744 133.573C280.7 133.613 280.666 133.662 280.641 133.716C280.617 133.77 280.603 133.829 280.602 133.888V133.888V147.241H291.139V145.78C293.918 145.469 296.048 141.529 296.132 138.718ZM291.132 144.057V136.642C293.177 136.939 294.588 137.221 294.285 139.269C294.045 140.907 292.761 143.831 291.132 144.057V144.057Z" fill="#2C50EE"/>
</g>
<path d="M168.147 130.223H159.831V147.135H168.147V130.223Z" fill="#407BFF"/>
<path opacity="0.5" d="M168.147 130.223H159.831V147.135H168.147V130.223Z" fill="white"/>
<path d="M171.899 147.439H156.143L159.987 144.056H168.055L171.899 147.439Z" fill="#407BFF"/>
<path opacity="0.5" d="M171.899 147.439H156.143L159.987 144.056H168.055L171.899 147.439Z" fill="white"/>
<path d="M206.537 141.966H167.152L174.269 147.46H213.646L206.537 141.966Z" fill="#407BFF"/>
<path opacity="0.4" d="M206.537 141.966H167.152L174.269 147.46H213.646L206.537 141.966Z" fill="white"/>
<path d="M168.062 147.46L167.152 141.966L174.269 147.46H168.062Z" fill="#407BFF"/>
<path opacity="0.5" d="M168.062 147.46L167.152 141.966L174.269 147.46H168.062Z" fill="black"/>
<path d="M199.625 90.1924H127.944C127.192 90.1924 126.583 90.8025 126.583 91.5552V135.561C126.583 136.314 127.192 136.924 127.944 136.924H199.625C200.377 136.924 200.986 136.314 200.986 135.561V91.5552C200.986 90.8025 200.377 90.1924 199.625 90.1924Z" fill="#0B1C52"/>
<path opacity="0.5" d="M198.207 93.1157H129.284V133.838H198.207V93.1157Z" fill="#2C50EE"/>
<path d="M196.021 101.49H161.242V125.463H196.021V101.49Z" fill="#0B1C52"/>
<path d="M196.021 101.49H161.242V103.686H196.021V101.49Z" fill="#2C50EE"/>
<path d="M167.611 114.751L173.296 117.901C173.513 118.005 173.707 118.152 173.867 118.331C173.964 118.472 174.013 118.641 174.008 118.812C174.009 118.931 173.985 119.05 173.939 119.16C173.893 119.27 173.825 119.37 173.74 119.454C173.661 119.538 173.566 119.606 173.461 119.652C173.355 119.698 173.242 119.722 173.127 119.722C172.874 119.694 172.632 119.604 172.421 119.461L165.086 115.38C164.969 115.321 164.87 115.231 164.801 115.119C164.732 115.008 164.695 114.879 164.695 114.748C164.695 114.616 164.732 114.488 164.801 114.376C164.87 114.265 164.969 114.174 165.086 114.116L172.421 110.034C172.634 109.897 172.875 109.813 173.127 109.787C173.242 109.785 173.357 109.808 173.464 109.853C173.571 109.898 173.667 109.964 173.747 110.048C173.833 110.13 173.901 110.229 173.947 110.338C173.993 110.448 174.016 110.565 174.015 110.684C174.021 110.855 173.972 111.024 173.874 111.164C173.714 111.344 173.52 111.49 173.303 111.595L167.611 114.751Z" fill="white"/>
<path d="M182.239 108.87L176.597 121.008C176.506 121.229 176.375 121.43 176.209 121.601C176.056 121.721 175.867 121.783 175.673 121.778C175.558 121.779 175.443 121.758 175.337 121.714C175.23 121.67 175.133 121.606 175.052 121.523C174.969 121.45 174.903 121.36 174.856 121.259C174.81 121.158 174.786 121.048 174.784 120.937C174.804 120.69 174.877 120.449 174.996 120.231L180.638 108.1C180.726 107.883 180.853 107.685 181.012 107.514C181.167 107.393 181.359 107.328 181.555 107.33C181.669 107.329 181.783 107.35 181.888 107.394C181.994 107.438 182.089 107.502 182.169 107.584C182.249 107.658 182.312 107.748 182.356 107.847C182.4 107.947 182.422 108.055 182.423 108.163C182.412 108.409 182.35 108.65 182.239 108.87V108.87Z" fill="white"/>
<path d="M189.313 114.752L183.628 111.595C183.413 111.487 183.22 111.341 183.057 111.165C182.959 111.024 182.909 110.856 182.916 110.684C182.914 110.566 182.938 110.448 182.984 110.339C183.03 110.23 183.098 110.131 183.184 110.049C183.265 109.965 183.363 109.899 183.471 109.854C183.578 109.809 183.694 109.786 183.811 109.788C184.062 109.814 184.304 109.899 184.517 110.035L191.852 114.116C191.969 114.175 192.068 114.265 192.137 114.377C192.206 114.488 192.243 114.617 192.243 114.748C192.243 114.88 192.206 115.008 192.137 115.12C192.068 115.232 191.969 115.322 191.852 115.38L184.517 119.462C184.305 119.603 184.064 119.693 183.811 119.723C183.692 119.724 183.574 119.701 183.465 119.653C183.355 119.606 183.257 119.536 183.177 119.448C183.093 119.364 183.027 119.265 182.982 119.156C182.937 119.047 182.915 118.93 182.916 118.812C182.91 118.641 182.96 118.473 183.057 118.332C183.22 118.155 183.413 118.01 183.628 117.901L189.313 114.752Z" fill="white"/>
<path d="M134.468 96.8721H132.112V99.2306H134.468V96.8721Z" fill="white"/>
<path d="M134.468 102.98H132.112V105.339H134.468V102.98Z" fill="white"/>
<path d="M134.468 109.082H132.112V111.44H134.468V109.082Z" fill="white"/>
<path d="M134.468 115.182H132.112V117.541H134.468V115.182Z" fill="white"/>
<path d="M134.468 121.283H132.112V123.642H134.468V121.283Z" fill="white"/>
<path d="M134.468 127.384H132.112V129.743H134.468V127.384Z" fill="white"/>
<path d="M146.092 97.4019H136.704V98.108H146.092V97.4019Z" fill="white"/>
<path d="M142.234 103.524H138.891V104.23H142.234V103.524Z" fill="white"/>
<path d="M156.785 110.388H153.441V111.094H156.785V110.388Z" fill="white"/>
<path d="M142.234 115.832H138.891V116.538H142.234V115.832Z" fill="white"/>
<path d="M147.058 115.832H143.715V116.538H147.058V115.832Z" fill="white"/>
<path d="M152.256 110.388H143.715V111.094H152.256V110.388Z" fill="white"/>
<path d="M154.309 115.832H148.688V116.538H154.309V115.832Z" fill="white"/>
<path d="M152.016 128.917H148.673V129.623H152.016V128.917Z" fill="white"/>
<path d="M156.833 128.917H153.49V129.623H156.833V128.917Z" fill="white"/>
<path d="M160.339 128.917H158.47V129.623H160.339V128.917Z" fill="white"/>
<path d="M154.315 103.524H143.912V104.23H154.315V103.524Z" fill="white"/>
<path d="M147.058 122.208H143.715V122.915H147.058V122.208Z" fill="white"/>
<path d="M150.105 122.208H148.173V122.915H150.105V122.208Z" fill="white"/>
<path d="M157.045 122.208H151.586V122.915H157.045V122.208Z" fill="white"/>
<path d="M157.949 70.7454C157.773 79.2896 148.907 86.4569 138.137 86.7393C134.829 86.851 131.537 86.2414 128.488 84.9528C127.402 87.6361 125.117 89.9381 118.564 90.9691C125.399 85.6801 121.661 81.2033 120.102 77.2701C119.292 75.554 118.889 73.674 118.924 71.7764C119.1 63.2251 127.966 56.072 138.736 55.7825C149.506 55.493 158.118 62.2012 157.949 70.7454Z" fill="#2C50EE"/>
<path d="M138.666 61.7988H129.278V62.505H138.666V61.7988Z" fill="white"/>
<path d="M134.815 67.9209H131.472V68.627H134.815V67.9209Z" fill="white"/>
<path d="M149.366 74.7847H146.022V75.4908H149.366V74.7847Z" fill="white"/>
<path d="M134.815 80.229H131.472V80.9351H134.815V80.229Z" fill="white"/>
<path d="M139.632 80.229H136.289V80.9351H139.632V80.229Z" fill="white"/>
<path d="M144.83 74.7847H136.289V75.4908H144.83V74.7847Z" fill="white"/>
<path d="M146.89 80.229H141.269V80.9351H146.89V80.229Z" fill="white"/>
<path d="M146.89 67.9209H136.486V68.627H146.89V67.9209Z" fill="white"/>
<path d="M201.735 234.786L196.594 233.247L197.793 220.628L202.935 222.167L201.735 234.786Z" fill="#EE8A80"/>
<path opacity="0.2" d="M203.358 219.315L198.216 217.782L197.546 224.851L202.744 225.818L203.358 219.315Z" fill="#0B1C52"/>
<path d="M232.17 156.85C232.17 156.85 196.812 159.837 197.68 175.21C198.385 187.793 200.254 184.389 196.594 221.814L205.488 222.309C205.488 222.309 214.537 191.705 213.317 179.545C223.283 179.545 246.099 180.421 249.414 171.418C251.059 166.846 251.86 162.012 251.777 157.154L232.17 156.85Z" fill="#2C50EE"/>
<path d="M206.906 224.003L195.282 222.012L195.473 216.864L207.505 219.54L206.906 224.003Z" fill="#FFD07B"/>
<path d="M196.064 231.128L202.003 232.308C202.111 232.333 202.205 232.398 202.268 232.489C202.33 232.581 202.357 232.692 202.341 232.802L201.848 238.451C201.839 238.584 201.804 238.714 201.744 238.833C201.684 238.953 201.601 239.059 201.5 239.145C201.399 239.232 201.282 239.298 201.155 239.339C201.028 239.38 200.894 239.395 200.762 239.383C198.702 238.931 197.729 238.599 195.119 238.077C193.511 237.759 189.836 236.989 187.6 236.735C185.365 236.481 185.633 233.868 186.599 233.734C190.944 233.162 193.412 232.456 195.098 231.368C195.376 231.165 195.723 231.079 196.064 231.128Z" fill="#0B1C52"/>
<path d="M193.398 232.138C193.866 232.202 194.339 232.216 194.809 232.18C194.833 232.181 194.856 232.174 194.875 232.16C194.895 232.146 194.908 232.126 194.915 232.103C194.925 232.082 194.931 232.059 194.931 232.036C194.931 232.012 194.925 231.989 194.915 231.969C194.767 231.82 193.434 230.556 192.749 230.698C192.67 230.71 192.596 230.745 192.535 230.797C192.474 230.85 192.429 230.918 192.404 230.994C192.348 231.105 192.323 231.229 192.33 231.353C192.338 231.477 192.378 231.597 192.446 231.7C192.696 231.963 193.037 232.12 193.398 232.138ZM194.534 231.947C193.554 231.947 192.862 231.834 192.658 231.545C192.616 231.477 192.594 231.399 192.594 231.319C192.594 231.239 192.616 231.161 192.658 231.093C192.669 231.055 192.69 231.021 192.718 230.994C192.747 230.966 192.782 230.947 192.82 230.938C193.152 230.867 193.984 231.432 194.562 231.954L194.534 231.947Z" fill="#2C50EE"/>
<path d="M194.817 232.188H194.873C194.893 232.18 194.911 232.168 194.926 232.152C194.941 232.136 194.952 232.117 194.958 232.096C194.958 232.033 195.346 230.528 194.894 229.928C194.839 229.848 194.766 229.782 194.68 229.737C194.594 229.691 194.498 229.667 194.4 229.667C194.295 229.652 194.187 229.673 194.095 229.727C194.003 229.78 193.931 229.864 193.893 229.964C193.674 230.521 194.281 231.757 194.753 232.16C194.761 232.169 194.771 232.176 194.782 232.181C194.793 232.186 194.805 232.188 194.817 232.188ZM194.45 229.921C194.548 229.941 194.636 229.997 194.697 230.077C194.9 230.634 194.922 231.242 194.76 231.814C194.33 231.331 194.103 230.701 194.125 230.055C194.125 229.985 194.203 229.907 194.386 229.914L194.45 229.921Z" fill="#2C50EE"/>
<path d="M178.813 236.749L173.918 234.546L177.303 222.457L182.198 224.66L178.813 236.749Z" fill="#EE8A80"/>
<path opacity="0.2" d="M183.024 221.546L178.129 219.343L176.387 225.578L181.282 227.782L183.024 221.546Z" fill="#0B1C52"/>
<path d="M221.646 156.85C221.414 156.85 182.008 160.91 181.959 174.292C181.874 196.422 175.562 221.786 175.562 221.786L183.32 225.649C183.32 225.649 196.883 198.152 196.679 180.901C207.519 177.787 235.562 183.019 238.877 174.023C241.593 166.665 240.126 156.85 240.126 156.85H221.646Z" fill="#2C50EE"/>
<path d="M184.597 226.772L174.158 222.069L174.998 217.79L186.007 221.596L184.597 226.772Z" fill="#FFD07B"/>
<path d="M174.405 230.486L180.357 231.722C180.469 231.759 180.564 231.835 180.625 231.936C180.686 232.037 180.708 232.156 180.689 232.273L180.223 238.451C180.139 239.122 179.659 239.581 179.144 239.475C177.085 239.002 176.111 238.635 173.502 238.063C171.894 237.738 167.514 236.651 165.306 236.093C163.099 235.535 163.592 232.703 164.601 232.682C168.967 232.619 171.795 231.905 173.474 230.684C173.607 230.588 173.758 230.521 173.918 230.487C174.079 230.453 174.244 230.453 174.405 230.486V230.486Z" fill="#0B1C52"/>
<path d="M171.993 231.82C172.407 231.592 172.797 231.323 173.157 231.015C173.175 230.999 173.188 230.977 173.196 230.954C173.203 230.93 173.204 230.905 173.199 230.881C173.192 230.858 173.178 230.838 173.159 230.822C173.14 230.807 173.117 230.798 173.093 230.796C172.889 230.796 171.069 230.528 170.596 231.058C170.544 231.118 170.508 231.19 170.491 231.268C170.474 231.345 170.476 231.426 170.498 231.503C170.518 231.625 170.571 231.74 170.65 231.835C170.73 231.931 170.833 232.003 170.949 232.046C171.313 232.104 171.685 232.024 171.993 231.82V231.82ZM172.79 230.994C172.021 231.594 171.379 231.884 171.048 231.785C170.974 231.752 170.909 231.7 170.861 231.634C170.813 231.569 170.783 231.492 170.773 231.411C170.761 231.374 170.759 231.335 170.768 231.298C170.777 231.261 170.795 231.227 170.822 231.199C171.034 230.945 171.993 230.924 172.755 230.994H172.79Z" fill="#2C50EE"/>
<path d="M173.121 231.015L173.17 230.98C173.182 230.962 173.189 230.941 173.189 230.92C173.189 230.899 173.182 230.878 173.17 230.86C173.135 230.811 172.55 229.363 171.837 229.144C171.745 229.115 171.648 229.107 171.552 229.122C171.457 229.137 171.366 229.173 171.287 229.229C171.192 229.279 171.118 229.361 171.075 229.46C171.033 229.559 171.026 229.669 171.054 229.773C171.202 230.359 172.423 230.987 173.05 231.029L173.121 231.015ZM171.477 229.405C171.524 229.385 171.575 229.374 171.626 229.374C171.677 229.374 171.727 229.385 171.774 229.405C172.27 229.734 172.65 230.211 172.86 230.768C172.226 230.636 171.668 230.264 171.301 229.73C171.259 229.674 171.301 229.561 171.428 229.462L171.477 229.405Z" fill="#2C50EE"/>
<path d="M235.033 114.157C236.07 116.389 236.923 118.535 237.777 120.767C238.63 122.998 239.385 125.229 240.083 127.517C240.781 129.805 241.388 132.149 241.875 134.579C242.406 137.102 242.67 139.675 242.665 142.254C242.657 143.769 242.431 145.274 241.995 146.724C241.718 147.612 241.322 148.458 240.817 149.238C240.518 149.677 240.181 150.088 239.808 150.467L239.505 150.763C239.336 150.904 239.152 151.06 238.976 151.18C238.678 151.383 238.361 151.558 238.031 151.702C237.54 151.913 237.03 152.076 236.507 152.19C236.095 152.275 235.678 152.336 235.259 152.373C234.542 152.416 233.824 152.416 233.108 152.373C231.835 152.31 230.568 152.169 229.313 151.949C224.632 151.096 220.046 149.781 215.623 148.023L216.646 144.133C221.124 144.669 225.695 145.241 230.004 145.439C231.076 145.439 232.12 145.488 233.094 145.439C233.527 145.413 233.958 145.358 234.384 145.276C234.737 145.213 235.04 145.086 234.934 145.093C234.863 145.114 234.797 145.148 234.737 145.192C234.665 145.233 234.599 145.283 234.539 145.34C234.563 145.301 234.584 145.261 234.603 145.22C234.693 145.018 234.764 144.807 234.815 144.592C234.969 143.815 235.033 143.024 235.005 142.233C234.898 140.211 234.598 138.203 234.109 136.238C233.63 134.12 233.009 132.058 232.332 129.96C231.655 127.863 230.921 125.766 230.117 123.676C229.313 121.586 228.467 119.489 227.634 117.518L235.033 114.157Z" fill="#EE8A80"/>
<path d="M218.592 145.192L213.916 142.558L211.567 147.628C211.567 147.628 217.034 149.909 218.183 148.483L218.592 145.192Z" fill="#EE8A80"/>
<path d="M210.128 143.519L207.991 146.908L211.567 147.593L213.916 142.523L210.128 143.519Z" fill="#EE8A80"/>
<path d="M224.129 118.182C223.233 120.435 222.295 122.588 221.308 124.77C220.32 126.952 219.333 129.099 218.289 131.246C216.187 135.616 213.832 139.86 211.236 143.956C210.531 145.001 209.825 146.039 209.035 147.077C208.64 147.6 208.203 148.115 207.738 148.645C207.484 148.913 207.279 149.16 206.983 149.436L206.56 149.845L206.32 150.071C205.648 150.646 204.859 151.065 204.007 151.3C203.558 151.427 203.1 151.524 202.638 151.589C201.885 151.68 201.125 151.71 200.367 151.681C199.057 151.64 197.752 151.511 196.46 151.293C191.678 150.446 186.994 149.117 182.48 147.324L183.51 143.426C188.074 143.977 192.736 144.563 197.123 144.747C198.157 144.786 199.193 144.772 200.226 144.705C200.642 144.67 201.055 144.604 201.46 144.507C201.592 144.473 201.72 144.426 201.841 144.366C201.884 144.366 201.841 144.316 201.651 144.436C201.58 144.473 201.516 144.52 201.46 144.577L201.531 144.493L201.728 144.274C201.855 144.147 202.01 143.935 202.159 143.765C202.448 143.398 202.744 143.003 203.04 142.572C203.626 141.732 204.197 140.8 204.761 139.853C205.89 137.961 206.941 135.948 207.97 133.915C209 131.881 209.988 129.805 210.961 127.715C212.9 123.549 214.798 119.241 216.603 115.075L224.129 118.182Z" fill="#EE8A80"/>
<path d="M185.513 144.444L180.83 141.753L178.481 146.823C178.481 146.823 183.948 149.111 185.104 147.685L185.513 144.444Z" fill="#EE8A80"/>
<path d="M177.049 142.777L174.905 146.16L178.481 146.844L180.83 141.774L177.049 142.777Z" fill="#EE8A80"/>
<path d="M236.239 93.1289L233.249 96.596L228.685 101.32L229.031 102.174C229.383 103.048 229.588 103.974 229.637 104.914C229.743 106.807 229.56 108.41 226.576 109.695C226.576 109.695 223.445 113.79 230.893 112.653C238.341 111.517 239.462 107.647 239.462 107.647C236.176 105.296 235.978 97.4787 236.239 93.1289Z" fill="#EE8A80"/>
<path d="M221.054 89.217C221.054 89.683 220.821 90.0784 220.511 90.0926C220.2 90.1067 219.953 89.7395 219.946 89.2735C219.939 88.8074 220.186 88.412 220.49 88.3979C220.793 88.3837 221.047 88.7509 221.054 89.217Z" fill="#0B1C52"/>
<path d="M222.613 87.4801C222.567 87.4797 222.523 87.4678 222.483 87.4456C222.444 87.4234 222.411 87.3915 222.387 87.353C222.204 87.0534 221.955 86.7997 221.659 86.6112C221.364 86.4227 221.029 86.3045 220.68 86.2655C220.608 86.2619 220.54 86.2305 220.49 86.178C220.44 86.1254 220.412 86.0556 220.412 85.9831C220.412 85.9466 220.419 85.9105 220.434 85.877C220.448 85.8435 220.469 85.8133 220.496 85.7881C220.522 85.763 220.553 85.7436 220.587 85.731C220.622 85.7183 220.658 85.7128 220.694 85.7147V85.7147C221.134 85.7538 221.558 85.8956 221.933 86.1286C222.308 86.3616 222.623 86.6794 222.852 87.0564C222.89 87.1186 222.902 87.193 222.887 87.264C222.871 87.3351 222.828 87.3973 222.768 87.4377C222.72 87.4646 222.667 87.4792 222.613 87.4801V87.4801Z" fill="#0B1C52"/>
<path d="M220.885 89.4995C220.505 90.7707 219.959 91.9862 219.263 93.1149C219.552 93.2785 219.875 93.376 220.206 93.4004C220.538 93.4248 220.871 93.3756 221.181 93.2561L220.885 89.4995Z" fill="#EE8A80"/>
<path d="M236.663 86.8655C236.388 92.6276 236.515 96.0453 233.658 99.0958C232.74 100.109 231.562 100.852 230.253 101.243C228.944 101.635 227.552 101.661 226.229 101.319C224.906 100.977 223.702 100.279 222.746 99.3006C221.791 98.3226 221.12 97.1017 220.807 95.7699C219.51 90.6645 220.187 82.0992 225.744 79.5288C226.94 78.9357 228.272 78.6694 229.603 78.757C230.935 78.8446 232.22 79.2829 233.329 80.0276C234.437 80.7723 235.329 81.7969 235.914 82.9976C236.5 84.1984 236.758 85.5327 236.663 86.8655V86.8655Z" fill="#EE8A80"/>
<path d="M239.272 88.7933C238.442 91.2374 237.175 93.5103 235.534 95.5016L228.044 96.9139C228.044 96.9139 222.126 94.4353 223.706 90.3539C222.704 89.5065 223.078 86.8868 223.784 85.4463C224.351 85.9132 225.068 86.1596 225.803 86.1401C226.537 86.1207 227.24 85.8367 227.783 85.3403C228.009 85.6957 228.315 85.9938 228.676 86.2115C229.037 86.4292 229.443 86.5605 229.862 86.5954C230.282 86.6302 230.704 86.5676 231.096 86.4124C231.488 86.2572 231.838 86.0135 232.12 85.7005C232.441 86.0114 232.83 86.2438 233.255 86.3792C233.681 86.5147 234.132 86.5496 234.574 86.4812C235.015 86.4127 235.435 86.2429 235.8 85.9849C236.164 85.727 236.465 85.3879 236.677 84.9943C237.137 85.2825 237.676 85.4184 238.218 85.3829C238.76 85.3474 239.276 85.1423 239.695 84.7966L239.801 84.6978C239.902 86.0847 239.723 87.4778 239.272 88.7933Z" fill="#0B1C52"/>
<path d="M240.351 81.8025C240.554 82.2798 240.611 82.807 240.513 83.3165C240.415 83.826 240.167 84.2946 239.801 84.6623L239.695 84.7612C239.276 85.1069 238.76 85.312 238.218 85.3475C237.676 85.383 237.137 85.247 236.677 84.9589C236.465 85.3525 236.164 85.6915 235.8 85.9495C235.435 86.2074 235.015 86.3773 234.574 86.4457C234.132 86.5141 233.681 86.4792 233.255 86.3438C232.83 86.2083 232.441 85.976 232.12 85.665C231.838 85.9781 231.488 86.2217 231.096 86.3769C230.704 86.5322 230.282 86.5948 229.862 86.56C229.443 86.5251 229.037 86.3937 228.676 86.176C228.315 85.9583 228.009 85.6602 227.783 85.3049C227.24 85.8012 226.537 86.0852 225.803 86.1047C225.068 86.1241 224.351 85.8778 223.784 85.4108C223.483 85.178 223.242 84.8782 223.078 84.5352C223.039 84.4602 223.006 84.3823 222.979 84.3022C222.919 84.371 222.853 84.4348 222.782 84.4928C222.43 84.7743 222 84.9397 221.55 84.9662C221.1 84.9928 220.654 84.8792 220.271 84.6411C219.968 84.4306 219.726 84.1446 219.568 83.8115C219.409 83.4783 219.341 83.1095 219.368 82.7416C219.376 82.5884 219.402 82.4368 219.446 82.2897C219.39 82.3961 219.319 82.4936 219.234 82.5792C219.066 82.7417 218.867 82.869 218.649 82.9538C218.432 83.0387 218.199 83.0793 217.966 83.0734C217.732 83.0675 217.502 83.0151 217.289 82.9194C217.075 82.8236 216.883 82.6864 216.723 82.5157C216.561 82.2693 216.45 81.9924 216.397 81.7018C216.345 81.4112 216.352 81.1129 216.417 80.8251C216.483 80.5372 216.607 80.2658 216.781 80.0272C216.955 79.7885 217.175 79.5877 217.429 79.4369C217.831 79.2023 218.289 79.0803 218.755 79.0838C219.488 79.0945 220.198 79.3422 220.779 79.79C220.555 79.3448 220.495 78.8349 220.609 78.3498C220.724 77.8646 221.005 77.4355 221.405 77.1378C221.804 76.84 222.295 76.6928 222.792 76.722C223.289 76.7512 223.76 76.9549 224.122 77.2973C224.043 76.9369 224.075 76.5612 224.212 76.2188C224.349 75.8764 224.585 75.583 224.891 75.3766C225.864 74.8117 227.486 75.299 228.276 76.2452C228.276 76.2452 229.363 73.6184 231.239 73.9149C231.648 73.9714 233.573 74.8259 233.524 75.5179C233.534 75.562 233.534 75.6079 233.524 75.652C233.55 75.5979 233.581 75.5459 233.616 75.4967C233.823 75.2165 234.096 74.9918 234.411 74.8428C234.726 74.6937 235.073 74.6249 235.421 74.6423C236.175 74.6979 236.912 74.8943 237.593 75.2213C239.053 75.8215 240.605 76.4923 241.452 77.8269C242.298 79.1615 241.868 81.3788 240.351 81.8025Z" fill="#0B1C52"/>
<path d="M227.006 90.9114C226.799 92.3335 226.147 93.6533 225.144 94.6821C223.868 95.9038 222.782 94.6822 222.768 92.825C222.768 91.1444 223.395 88.4823 224.884 87.988C226.372 87.4937 227.289 89.0543 227.006 90.9114Z" fill="#EE8A80"/>
<path d="M249.576 109.652C249.047 108.24 246.579 106.828 245.062 106.828H244.061C242.04 106.845 240.022 106.975 238.016 107.216C233.985 107.663 229.982 108.337 226.026 109.236C224.206 109.716 222.45 110.323 221.054 110.846C219.276 111.552 218.232 112.025 218.232 112.025C218.232 112.025 220.179 125.004 221.188 137.897C221.745 145.079 221.512 152.204 221.695 157.104H251.784C252.821 151.215 252.659 146.082 252.743 135.447C252.786 129.043 251.749 115.464 249.576 109.652Z" fill="#FFD07B"/>
<path opacity="0.2" d="M220.532 130.695C220.758 133.4 220.991 136.238 221.238 139.077C224.764 133.922 226.711 119.821 226.711 119.821L220.532 130.695Z" fill="#0B1C52"/>
<path d="M216.525 112.971C212.216 115.4 207.991 127.8 207.991 127.8L217.866 135.25C221.632 131.684 227.14 122.836 227.74 119.298C228.699 113.903 223.43 109.101 216.525 112.971Z" fill="#FFD07B"/>
<path d="M208.005 239.51C208.005 240.118 207.825 240.712 207.488 241.217C207.151 241.722 206.672 242.116 206.111 242.348C205.551 242.58 204.934 242.641 204.339 242.523C203.744 242.404 203.197 242.112 202.768 241.682C202.339 241.253 202.046 240.705 201.928 240.109C201.81 239.514 201.87 238.896 202.103 238.335C202.335 237.773 202.728 237.294 203.233 236.956C203.737 236.619 204.33 236.438 204.937 236.438C205.751 236.438 206.531 236.762 207.107 237.338C207.682 237.914 208.005 238.695 208.005 239.51V239.51Z" fill="#0B1C52"/>
<path d="M253.809 239.51C253.809 240.118 253.989 240.712 254.326 241.217C254.663 241.722 255.142 242.116 255.703 242.348C256.263 242.58 256.88 242.641 257.475 242.523C258.07 242.404 258.617 242.112 259.046 241.682C259.475 241.253 259.767 240.705 259.886 240.109C260.004 239.514 259.943 238.896 259.711 238.335C259.479 237.773 259.086 237.294 258.581 236.956C258.077 236.619 257.484 236.438 256.877 236.438C256.063 236.438 255.283 236.762 254.707 237.338C254.132 237.914 253.809 238.695 253.809 239.51V239.51Z" fill="#0B1C52"/>
<path d="M227.902 238.494C227.902 239.101 228.082 239.695 228.419 240.2C228.757 240.705 229.236 241.099 229.796 241.331C230.357 241.564 230.974 241.625 231.569 241.506C232.164 241.388 232.711 241.095 233.14 240.666C233.569 240.236 233.861 239.689 233.98 239.093C234.098 238.497 234.037 237.879 233.805 237.318C233.573 236.757 233.18 236.277 232.675 235.94C232.17 235.602 231.577 235.422 230.97 235.422C230.157 235.422 229.376 235.745 228.801 236.322C228.226 236.898 227.902 237.679 227.902 238.494V238.494Z" fill="#0B1C52"/>
<path d="M230.018 234.737V228.798H221.23C219.505 228.796 217.783 228.957 216.088 229.279L199.725 232.456C199.358 232.528 199.031 232.735 198.81 233.037C198.589 233.339 198.489 233.713 198.531 234.085C198.573 234.457 198.753 234.8 199.036 235.045C199.318 235.29 199.683 235.42 200.057 235.408L230.018 234.737Z" fill="#5F6A9E"/>
<path d="M230.019 234.737V228.798H238.814C240.533 228.808 242.247 228.981 243.934 229.314L262.329 232.251C262.696 232.323 263.023 232.53 263.244 232.832C263.465 233.134 263.565 233.508 263.523 233.88C263.481 234.252 263.301 234.595 263.018 234.84C262.736 235.085 262.371 235.215 261.997 235.203L230.019 234.737Z" fill="#5F6A9E"/>
<path d="M235.463 201.612H224.58V228.805H235.463V201.612Z" fill="#5F6A9E"/>
<path d="M233.905 188.958H226.146V201.605H233.905V188.958Z" fill="#8F9BD4"/>
<path opacity="0.5" d="M226.146 192.665L233.905 194.628V188.951H226.146V192.665Z" fill="#8F9BD4"/>
<path d="M204.945 160.346H201.002V177.187H204.945V160.346Z" fill="#0B1C52"/>
<path d="M224.707 188.958V115.739C224.706 114.369 224.998 113.015 225.564 111.768C226.13 110.521 226.956 109.409 227.987 108.508L233.199 103.94C234.954 102.398 237.212 101.552 239.547 101.56H258.371L267.555 111.389V188.958H224.707Z" fill="#2C50EE"/>
<path d="M196.678 174.793H239.632V188.958H189.675C188.779 188.957 187.899 188.718 187.125 188.267C186.351 187.816 185.709 187.168 185.266 186.389C184.822 185.61 184.591 184.728 184.598 183.831C184.604 182.934 184.847 182.055 185.302 181.282C186.469 179.303 188.133 177.663 190.129 176.524C192.124 175.386 194.382 174.789 196.678 174.793V174.793Z" fill="#2C50EE"/>
<path d="M267.555 111.389V188.958H189.675C188.779 188.957 187.899 188.718 187.125 188.267C186.351 187.816 185.709 187.168 185.266 186.389C184.822 185.61 184.591 184.728 184.598 183.831C184.604 182.934 184.847 182.055 185.302 181.283C186.47 179.303 188.134 177.664 190.129 176.526C192.125 175.387 194.382 174.79 196.678 174.793H218.31C220.014 174.793 221.649 174.115 222.854 172.909C224.059 171.703 224.735 170.066 224.735 168.36V115.739C224.735 114.369 225.027 113.015 225.593 111.768C226.158 110.521 226.984 109.409 228.015 108.508L233.227 103.94C234.983 102.398 237.24 101.552 239.575 101.56H258.4L267.555 111.389Z" fill="#384375"/>
<path d="M230.971 188.958V115.739C230.972 114.37 231.265 113.016 231.83 111.769C232.396 110.522 233.221 109.41 234.25 108.508L239.463 103.94C241.218 102.398 243.476 101.552 245.81 101.56H260.488C261.799 101.559 263.097 101.827 264.3 102.348C265.503 102.87 266.587 103.632 267.485 104.589L271.237 108.579C272.909 110.364 273.839 112.72 273.839 115.167V181.621C273.84 182.586 273.651 183.541 273.283 184.432C272.914 185.323 272.374 186.132 271.693 186.814C271.011 187.495 270.202 188.036 269.312 188.404C268.422 188.772 267.467 188.96 266.504 188.958H230.971Z" fill="#2C50EE"/>
<path d="M230.971 188.958V115.739C230.972 114.37 231.265 113.016 231.83 111.769C232.396 110.522 233.221 109.41 234.25 108.508L239.463 103.94C241.218 102.398 243.476 101.552 245.81 101.56H260.488C261.799 101.559 263.097 101.827 264.3 102.348C265.503 102.87 266.587 103.632 267.485 104.589L271.237 108.579C272.909 110.364 273.839 112.72 273.839 115.167V181.621C273.84 182.586 273.651 183.541 273.283 184.432C272.914 185.323 272.374 186.132 271.693 186.814C271.011 187.495 270.202 188.036 269.312 188.404C268.422 188.772 267.467 188.96 266.504 188.958H230.971Z" fill="#C0CAFA"/>
<path d="M216.356 165.487C207.68 162.45 198.231 162.45 189.554 165.487C188.684 165.812 187.724 165.809 186.856 165.477C185.987 165.146 185.269 164.509 184.836 163.686V163.686C184.032 161.984 185.111 159.781 187.297 159.011C197.431 155.466 208.466 155.466 218.599 159.011C220.786 159.774 221.865 161.984 221.061 163.686C220.628 164.506 219.912 165.14 219.046 165.471C218.181 165.803 217.225 165.808 216.356 165.487V165.487Z" fill="#2C50EE"/>
<path opacity="0.7" d="M216.356 165.487C207.68 162.45 198.231 162.45 189.554 165.487C188.684 165.812 187.724 165.809 186.856 165.477C185.987 165.146 185.269 164.509 184.836 163.686V163.686C184.032 161.984 185.111 159.781 187.297 159.011C197.431 155.466 208.466 155.466 218.599 159.011C220.786 159.774 221.865 161.984 221.061 163.686C220.628 164.506 219.912 165.14 219.046 165.471C218.181 165.803 217.225 165.808 216.356 165.487V165.487Z" fill="white"/>
<path d="M43.4909 93.264C43.3428 93.6806 43.4486 94.0972 43.7236 94.189C43.9987 94.2808 44.3373 94.0266 44.4783 93.61C44.6194 93.1934 44.5206 92.7697 44.2526 92.6779C43.9846 92.5861 43.639 92.8403 43.4909 93.264Z" fill="#0B1C52"/>
<path d="M43.413 93.6948C43.4705 95.1488 43.7244 96.5882 44.1677 97.974C43.8123 98.0745 43.4395 98.0975 43.0745 98.0415C42.7095 97.9855 42.3607 97.8517 42.0518 97.6492L43.413 93.6948Z" fill="#EE8A80"/>
<path d="M42.8137 90.4256C42.8395 90.4363 42.867 90.4418 42.8949 90.4418C42.9227 90.4418 42.9503 90.4363 42.976 90.4256C43.286 90.3267 43.6147 90.3007 43.9364 90.3497C44.2582 90.3987 44.5643 90.5213 44.8309 90.708C44.884 90.7466 44.9496 90.7637 45.0147 90.756C45.0798 90.7483 45.1396 90.7164 45.1823 90.6666C45.2249 90.6167 45.2473 90.5527 45.2449 90.4871C45.2426 90.4215 45.2156 90.3592 45.1695 90.3126C44.8381 90.0661 44.4529 89.9023 44.0456 89.8347C43.6384 89.7672 43.2209 89.7979 42.8279 89.9242C42.7635 89.9482 42.7108 89.996 42.6806 90.0578C42.6504 90.1195 42.6451 90.1905 42.6656 90.2561C42.6775 90.2943 42.6985 90.3291 42.7268 90.3573C42.755 90.3856 42.7897 90.4066 42.8279 90.4185L42.8137 90.4256Z" fill="#0B1C52"/>
<path d="M28.0234 94.8037C28.8133 98.8216 29.5962 106.187 26.7891 108.87C26.7891 108.87 27.8893 112.944 35.3515 112.944C43.5543 112.944 39.273 108.87 39.273 108.87C34.7943 107.797 35.5137 104.471 36.2966 101.35L28.0234 94.8037Z" fill="#EE8A80"/>
<path d="M29.8505 87.5159C28.3834 92.7695 27.2549 95.7706 28.9336 99.3083C31.4515 104.64 40.2185 105.332 42.6518 99.2306C44.4786 93.5816 46.2842 87.6712 41.9465 83.8793C40.9981 83.0384 39.851 82.4539 38.6138 82.1812C37.3766 81.9084 36.0903 81.9564 34.8768 82.3206C33.6633 82.6848 32.5628 83.3531 31.6795 84.2623C30.7961 85.1714 30.1593 86.2913 29.8293 87.5159H29.8505Z" fill="#EE8A80"/>
<path d="M24.1652 89.2674C23.7843 87.3326 23.6856 85.2142 24.6519 83.4913C25.6181 81.7683 27.9527 80.7161 29.6525 81.7189C30.2049 80.5541 31.0219 79.5349 32.0381 78.7429C33.0544 77.9509 34.2417 77.408 35.505 77.1577C36.7684 76.9074 38.0727 76.9566 39.3137 77.3013C40.5547 77.6461 41.6978 78.2769 42.6517 79.1432C43.6056 80.0095 44.3436 81.0873 44.8069 82.2904C45.2702 83.4935 45.4457 84.7884 45.3196 86.0716C45.1934 87.3547 44.769 88.5905 44.0804 89.6801C43.3917 90.7696 42.4579 91.6827 41.3536 92.3462C41.7415 90.8986 42.1365 89.4581 42.5244 88.0105C42.1804 90.0269 41.1118 91.8477 39.5198 93.13C39.7455 91.7177 39.9712 90.2419 40.2251 88.8014C40.1129 89.8219 39.766 90.8025 39.2117 91.6662C38.6573 92.53 37.9106 93.2533 37.0301 93.7796L37.8553 90.7503C37.4372 92.1433 36.904 93.4991 36.2613 94.8035C35.556 95.6156 35.1116 100.926 32.6783 101.095C24.3345 102.755 25.0398 93.7867 24.1652 89.2674Z" fill="#0B1C52"/>
<path d="M35.3873 91.7812C35.2465 93.1281 35.5486 94.4843 36.2477 95.6437C37.1858 97.1549 38.5612 96.5758 39.069 95.0294C39.5204 93.6171 39.5697 91.181 38.2649 90.1995C36.9601 89.2179 35.62 90.1641 35.3873 91.7812Z" fill="#EE8A80"/>
<path d="M15.5042 142.679C14.6085 142.383 10.4119 140.222 9.74891 140.61C11.6815 135.667 12.8875 134.898 13.7692 131.748C14.0146 130.966 14.0573 130.135 13.8932 129.332C13.7291 128.529 13.3636 127.781 12.8311 127.158C11.5968 125.492 11.1595 124.652 9.10003 124.856C6.27879 129.602 2.68876 135.448 1.29224 140.808C0.82674 142.609 0.481139 143.979 1.55321 145.504C2.49833 146.845 4.24044 147.382 5.87676 147.53C9.80534 147.883 15.6382 147.163 15.5607 144.826C15.5183 143.35 15.5042 142.679 15.5042 142.679Z" fill="#EE8A80"/>
<path d="M14.8412 142.503L18.1702 141.422L17.874 147.446C17.874 147.446 15.2079 147.537 13.7832 145.751L14.8412 142.503Z" fill="#EE8A80"/>
<path d="M22.3384 141.323L21.8588 146.294L17.8809 147.445L18.1771 141.422L22.3384 141.323Z" fill="#EE8A80"/>
<path d="M60.5026 146.782C60.5026 146.782 55.8617 143.124 49.7678 131.12C48.8579 129.439 47.9975 127.737 47.1723 126.028C46.347 124.32 45.543 122.611 44.7812 120.796L51.9895 117.689C53.4707 120.923 55.7841 124.263 57.4204 127.476C59.0567 130.689 62.9148 138.301 63.4014 139.007C63.6412 139.374 63.9022 139.678 64.1491 140.017L64.5229 140.511L59.8749 145.892L60.5026 146.782Z" fill="#EE8A80"/>
<path d="M67.0056 133.718C67.1184 133.231 69.1215 130.611 69.453 130.188C70.4193 129.037 69.0651 132.426 69.8973 133.718C70.7296 135.011 70.5109 136.02 69.192 139.968C68.3104 142.587 67.8378 144.678 65.5808 146.274C64.6686 146.978 63.5584 147.378 62.4069 147.417C61.8335 147.424 61.27 147.267 60.7827 146.965C60.2955 146.662 59.9046 146.226 59.6562 145.709C58.9862 144.063 62.5198 140.893 63.4085 138.979C66.1944 132.984 65.6725 139.41 67.0056 133.718Z" fill="#EE8A80"/>
<path d="M17.4927 109.879C12.3439 111.058 4.72656 127.123 4.72656 127.123L15.0594 134.184C18.0351 129.933 20.7213 125.486 23.0999 120.874C26.1539 114.476 22.7543 108.672 17.4927 109.879Z" fill="#FFD07B"/>
<path d="M25.0399 110.268C24.4475 108.976 23.8056 107.5 25.1387 107.041C26.6128 106.532 34.6815 106.01 37.4604 106.963C37.8245 107.062 38.1654 107.232 38.4636 107.463C38.7618 107.694 39.0115 107.982 39.1983 108.31C39.3851 108.638 39.5053 109 39.552 109.375C39.5987 109.75 39.5711 110.13 39.4706 110.494V110.543L25.0399 110.268Z" fill="#0B1C52"/>
<path opacity="0.2" d="M20.6743 119.158L13.332 132.998L15.06 134.184C15.06 134.184 18.3891 129.545 20.7025 125.534L20.6743 119.158Z" fill="#000516"/>
<path d="M48.7948 116.948C49.9092 122.597 47.3066 136.013 47.3348 157.903H17.9869C17.7965 153.483 21.0127 143.004 17.0136 122.131C16.8866 121.425 16.8302 110.021 17.5073 109.901C20.3499 109.403 23.2178 109.064 26.098 108.884C30.2558 108.644 34.4241 108.644 38.5819 108.884C40.2817 109.06 42.9619 110.112 44.6476 110.72C47.2643 111.652 48.2517 114.173 48.7948 116.948Z" fill="#FFD07B"/>
<path opacity="0.2" d="M41.0293 122.562C41.791 127.201 44.8309 133.33 47.8567 136.931C47.9766 134.297 48.2446 131.544 48.2376 129.432L41.0293 122.562Z" fill="#000516"/>
<path d="M38.9343 115.585C38.229 120.789 48.456 134.072 48.456 134.072L58.7464 127.01C58.7464 127.01 55.8899 119.695 51.0868 114.879C45.6136 109.392 39.7383 109.936 38.9343 115.585Z" fill="#FFD07B"/>
<path d="M72.5781 230.769H78.0654L79.3138 218.038H73.8265L72.5781 230.769Z" fill="#EE8A80"/>
<path opacity="0.2" d="M79.2287 218.814L78.594 225.374H73.0996L73.7414 218.814H79.2287Z" fill="#000516"/>
<path d="M50.9316 230.769H56.419L59.1767 218.038H53.6894L50.9316 230.769Z" fill="#EE8A80"/>
<g opacity="0.2">
<path d="M53.5702 218.723H59.0575L57.6328 225.283H52.1455L53.5702 218.723Z" fill="#000516"/>
</g>
<path d="M78.3685 228.305H72.3805C72.2565 228.319 72.1416 228.376 72.0553 228.467C71.969 228.557 71.9169 228.674 71.9079 228.799L70.8217 235.084C70.7592 235.327 70.7843 235.585 70.8926 235.813C71.0009 236.04 71.1855 236.222 71.4142 236.326C71.4796 236.337 71.5462 236.337 71.6117 236.326C73.7699 236.284 76.8944 236.115 79.6099 236.115C82.7908 236.115 85.5345 236.333 89.2585 236.333C91.5155 236.333 92.1432 233.382 91.1981 233.121C86.9028 231.906 83.3974 231.779 79.6875 228.806C79.3181 228.493 78.8525 228.316 78.3685 228.305V228.305Z" fill="#0B1C52"/>
<path d="M82.7278 230.346C83.4331 230.346 84.1384 230.247 84.3429 229.929C84.4012 229.845 84.4324 229.745 84.4324 229.643C84.4324 229.541 84.4012 229.441 84.3429 229.357C84.2491 229.208 84.1032 229.1 83.9338 229.053C83.0169 228.806 81.1126 229.901 81.0209 229.95C80.9983 229.964 80.9802 229.984 80.969 230.008C80.9577 230.032 80.9537 230.058 80.9574 230.084C80.9612 230.11 80.9726 230.134 80.9903 230.153C81.0079 230.172 81.0309 230.185 81.0562 230.19C81.6072 230.295 82.1669 230.347 82.7278 230.346V230.346ZM83.5812 229.272H83.8281C83.8813 229.282 83.9317 229.304 83.9756 229.336C84.0195 229.367 84.0558 229.408 84.082 229.456C84.1737 229.618 84.1454 229.696 84.082 229.738C83.8281 230.098 82.4386 230.106 81.4159 229.957C82.0891 229.597 82.8233 229.365 83.5812 229.272V229.272Z" fill="#FFD07B"/>
<path d="M81.0702 230.19H81.1266C81.7896 229.894 83.1015 228.708 82.9957 228.072C82.9957 227.924 82.8687 227.747 82.5161 227.705C82.2606 227.686 82.0077 227.767 81.8107 227.931C81.1054 228.503 80.9644 229.986 80.9573 230.049C80.9559 230.072 80.9596 230.094 80.9682 230.115C80.9767 230.136 80.9899 230.154 81.0067 230.169C81.0252 230.183 81.0474 230.19 81.0702 230.19V230.19ZM82.4103 227.966H82.4878C82.7206 227.966 82.7347 228.086 82.7418 228.114C82.8052 228.489 81.9095 229.421 81.2324 229.823C81.2899 229.202 81.5361 228.613 81.9377 228.136C82.0721 228.028 82.2383 227.969 82.4103 227.966V227.966Z" fill="#FFD07B"/>
<path d="M56.7786 228.305H50.6354C50.5122 228.32 50.3981 228.377 50.313 228.467C50.2279 228.558 50.1773 228.675 50.1699 228.799L49.0837 235.084C49.0257 235.334 49.0583 235.598 49.1759 235.826C49.2934 236.055 49.4881 236.235 49.7255 236.334C49.7841 236.341 49.8433 236.341 49.9019 236.334C52.0178 236.291 53.104 236.122 55.8124 236.122C57.4839 236.122 59.621 236.341 61.9274 236.341C64.2338 236.341 64.53 233.389 63.5849 233.128C59.353 231.927 59.0638 230.303 57.7096 228.693C57.5935 228.563 57.4495 228.46 57.2883 228.393C57.1272 228.326 56.953 228.296 56.7786 228.305V228.305Z" fill="#0B1C52"/>
<path d="M60.0237 231.045C60.2564 231.077 60.4932 231.061 60.7199 230.999C60.9466 230.938 61.1584 230.83 61.3426 230.684C61.4074 230.595 61.4423 230.488 61.4423 230.377C61.4423 230.267 61.4074 230.159 61.3426 230.07C61.3009 229.993 61.2426 229.925 61.1719 229.873C61.1012 229.82 61.0198 229.784 60.9335 229.767C60.1295 229.576 58.6131 230.614 58.5496 230.656C58.5295 230.672 58.5137 230.692 58.5038 230.716C58.4939 230.739 58.4902 230.765 58.4932 230.79C58.4972 230.815 58.509 230.838 58.5267 230.856C58.5444 230.873 58.5672 230.885 58.5919 230.889C59.062 230.994 59.5422 231.046 60.0237 231.045ZM60.729 230H60.8842C60.9339 230.009 60.9811 230.029 61.0225 230.058C61.0639 230.087 61.0985 230.125 61.124 230.169C61.2439 230.388 61.1733 230.473 61.124 230.508C60.8912 230.812 59.7698 230.819 58.9446 230.684C59.4754 230.321 60.08 230.08 60.7149 229.978L60.729 230Z" fill="#FFD07B"/>
<path d="M58.6272 230.897H58.6836C59.2549 230.586 60.3552 229.385 60.2353 228.778C60.2172 228.681 60.1656 228.593 60.0896 228.53C60.0136 228.467 59.9179 228.432 59.8191 228.432C59.7208 228.423 59.6216 228.433 59.5271 228.462C59.4327 228.491 59.345 228.538 59.269 228.602C58.6342 229.124 58.5002 230.72 58.4932 230.777C58.4934 230.8 58.4993 230.823 58.5104 230.844C58.5214 230.865 58.5373 230.883 58.5566 230.897H58.6272ZM59.7345 228.672H59.7909C59.9602 228.672 59.9743 228.771 59.9814 228.806C60.0519 229.167 59.3466 230.077 58.7823 230.508C58.8261 229.883 59.0517 229.284 59.4312 228.785C59.5159 228.713 59.6233 228.673 59.7345 228.672V228.672Z" fill="#FFD07B"/>
<path d="M38.533 157.889C38.533 157.889 64.5378 168.637 69.8982 176.891C66.7031 197.892 60.969 221.815 60.969 221.815H51.1934C51.2089 211.464 52.0556 201.131 53.7254 190.915C55.136 165.247 8.99467 191.805 17.9592 157.889H38.533Z" fill="#0B1C52"/>
<path opacity="0.3" d="M56.5036 175.606C54.683 175.714 52.8698 175.923 51.0727 176.235L45.3809 177.11C48.3185 179.577 51.4196 181.842 54.6627 183.889C56.6235 185.139 58.7676 186.339 61.0952 186.346C63.6978 186.346 70.7791 182.999 69.6083 179.518C68.4374 176.037 59.4659 175.479 56.5036 175.606Z" fill="#000516"/>
<path d="M47.3345 157.889C47.3345 157.889 71.3574 160.996 84.6031 168.545C88.6798 170.868 88.1297 178.332 88.0027 183.246C87.7142 196.436 85.1811 209.479 80.5123 221.815H72.3589C72.3589 221.815 72.7751 208.491 72.5 186.989C72.4154 180.542 59.4165 178.416 46.7139 177.668C41.3347 177.329 36.1571 175.492 31.7653 172.364C27.3735 169.236 23.9422 164.942 21.8587 159.965L20.9912 157.889H47.3345Z" fill="#0B1C52"/>
<path d="M82.509 219.626C82.5514 219.626 81.9801 223.489 81.9801 223.489H70.6951L70.3848 220.043L82.509 219.626Z" fill="#FFD07B"/>
<path d="M61.9136 219.626C61.9559 219.626 60.8768 223.489 60.8768 223.489H49.5918L49.7963 220.043L61.9136 219.626Z" fill="#FFD07B"/>
<path d="M31.5919 177.379L23.509 237.054L22.042 236.849L28.284 176.927L31.5919 177.379Z" fill="#FFD07B"/>
<path d="M31.3027 179.511L23.509 237.054L22.042 236.849L28.016 179.504L31.3027 179.511Z" fill="#5F6A9E"/>
<path d="M60.0307 179.511H14.1855C14.1855 178.125 14.734 176.796 15.7109 175.814C16.6878 174.832 18.0135 174.277 19.3978 174.271H54.7973C56.1853 174.271 57.5164 174.824 58.4979 175.806C59.4793 176.789 60.0307 178.121 60.0307 179.511V179.511Z" fill="#FFD07B"/>
<path d="M60.0307 179.511H14.1855C14.1855 178.125 14.734 176.796 15.7109 175.814C16.6878 174.832 18.0135 174.277 19.3978 174.271H54.7973C56.1853 174.271 57.5164 174.824 58.4979 175.806C59.4793 176.789 60.0307 178.121 60.0307 179.511V179.511Z" fill="#C0CAFA"/>
<path d="M16.3154 179.504L9.40332 237.52H10.8845L19.6515 179.504H16.3154Z" fill="#8F9BD4"/>
<path d="M57.915 179.504L64.827 237.52H63.3459L54.5859 179.504H57.915Z" fill="#FFD07B"/>
<path d="M57.915 179.504L64.827 237.52H63.3459L54.5859 179.504H57.915Z" fill="#5F6A9E"/>
<path d="M48.6681 179.504L48.8022 237.52H47.3281L45.332 179.504H48.6681Z" fill="#8F9BD4"/>
<path d="M103.675 93.264C103.527 93.6806 103.633 94.0972 103.908 94.189C104.183 94.2808 104.522 94.0266 104.663 93.61C104.804 93.1934 104.705 92.7697 104.437 92.6779C104.169 92.5861 103.824 92.8403 103.675 93.264Z" fill="#0B1C52"/>
<path d="M103.598 93.6948C103.655 95.1488 103.909 96.5882 104.352 97.974C103.997 98.0745 103.624 98.0975 103.259 98.0415C102.894 97.9855 102.545 97.8517 102.236 97.6492L103.598 93.6948Z" fill="#EE8A80"/>
<path d="M102.998 90.4256C103.024 90.4363 103.052 90.4418 103.079 90.4418C103.107 90.4418 103.135 90.4363 103.161 90.4256C103.471 90.3267 103.799 90.3007 104.121 90.3497C104.443 90.3987 104.749 90.5213 105.016 90.708C105.069 90.7466 105.134 90.7637 105.199 90.756C105.264 90.7483 105.324 90.7164 105.367 90.6666C105.41 90.6167 105.432 90.5527 105.43 90.4871C105.427 90.4215 105.4 90.3592 105.354 90.3126C105.023 90.0661 104.637 89.9023 104.23 89.8347C103.823 89.7672 103.405 89.7979 103.012 89.9242C102.948 89.9482 102.895 89.996 102.865 90.0578C102.835 90.1195 102.83 90.1905 102.85 90.2561C102.862 90.2943 102.883 90.3291 102.911 90.3573C102.94 90.3856 102.974 90.4066 103.012 90.4185L102.998 90.4256Z" fill="#0B1C52"/>
<path d="M88.2079 94.8037C88.9979 98.8216 89.7808 106.187 86.9736 108.87C86.9736 108.87 88.0739 112.944 95.5361 112.944C103.739 112.944 99.4576 108.87 99.4576 108.87C94.9789 107.797 95.6983 104.471 96.4812 101.35L88.2079 94.8037Z" fill="#EE8A80"/>
<path d="M90.0341 87.5159C88.567 92.7695 87.4385 95.7706 89.1172 99.3083C91.6351 104.64 100.437 105.332 102.835 99.2306C104.662 93.5816 106.468 87.6712 102.13 83.8793C101.182 83.0384 100.035 82.4539 98.7973 82.1812C97.5601 81.9084 96.2739 81.9564 95.0604 82.3206C93.8469 82.6848 92.7463 83.3531 91.863 84.2623C90.9797 85.1714 90.3429 86.2913 90.0129 87.5159H90.0341Z" fill="#EE8A80"/>
<path d="M84.3498 89.2674C83.9689 87.3326 83.8702 85.2142 84.8364 83.4913C85.8027 81.7683 88.1373 80.7161 89.8371 81.7189C90.3894 80.5541 91.2064 79.5349 92.2227 78.7429C93.2389 77.9509 94.4262 77.408 95.6896 77.1577C96.953 76.9074 98.2573 76.9566 99.4983 77.3013C100.739 77.6461 101.882 78.2769 102.836 79.1432C103.79 80.0095 104.528 81.0873 104.991 82.2904C105.455 83.4935 105.63 84.7884 105.504 86.0716C105.378 87.3547 104.954 88.5905 104.265 89.6801C103.576 90.7696 102.642 91.6827 101.538 92.3462C101.926 90.8986 102.321 89.4581 102.709 88.0105C102.363 90.026 101.294 91.846 99.7044 93.13L100.41 88.8014C100.299 89.8232 99.9517 90.805 99.3959 91.6691C98.8401 92.5332 98.0909 93.2558 97.2076 93.7796L98.0328 90.7503C97.6147 92.1433 97.0815 93.4991 96.4388 94.8035C95.7335 95.6156 95.2821 100.926 92.8558 101.095C84.5191 102.755 85.2385 93.7867 84.3498 89.2674Z" fill="#0B1C52"/>
<path d="M95.5709 91.7812C95.4301 93.1281 95.7322 94.4843 96.4313 95.6437C97.3694 97.1549 98.7447 96.5758 99.2526 95.0294C99.704 93.6171 99.7533 91.181 98.4485 90.1995C97.1437 89.2179 95.7683 90.1641 95.5709 91.7812Z" fill="#EE8A80"/>
<path d="M75.6885 142.679C74.7927 142.383 70.5961 140.222 69.9261 140.61C71.8657 135.667 73.0718 134.898 73.9534 131.748C74.1989 130.966 74.2415 130.135 74.0774 129.332C73.9133 128.529 73.5478 127.781 73.0153 127.158C71.774 125.492 71.3437 124.652 69.2842 124.856C66.463 129.602 62.873 135.448 61.4765 140.808C61.0039 142.609 60.6654 143.979 61.7374 145.504C62.6825 146.845 64.4247 147.382 66.061 147.53C69.9896 147.883 75.8225 147.163 75.7449 144.826C75.7026 143.35 75.6885 142.679 75.6885 142.679Z" fill="#EE8A80"/>
<path d="M75.0257 142.503L78.3548 141.422L78.0586 147.446C78.0586 147.446 75.3925 147.537 73.9678 145.751L75.0257 142.503Z" fill="#EE8A80"/>
<path d="M82.5232 141.323L82.0436 146.294L78.0586 147.445L78.3619 141.422L82.5232 141.323Z" fill="#EE8A80"/>
<path d="M120.687 146.782C120.687 146.782 116.025 143.124 109.945 131.12C109.043 129.439 108.182 127.737 107.35 126.028C106.517 124.32 105.728 122.611 104.966 120.796L112.174 117.689C113.655 120.923 115.969 124.263 117.605 127.476C119.241 130.689 123.099 138.301 123.586 139.007C123.826 139.374 124.087 139.678 124.334 140.017L124.707 140.511L120.059 145.892L120.687 146.782Z" fill="#EE8A80"/>
<path d="M126.788 123.352L125.378 121.629L124.715 119.052L129.067 115.006C129.732 115.853 130.324 116.755 130.837 117.703C130.949 117.921 131.002 118.165 130.992 118.409L130.816 122.95L126.788 123.352Z" fill="#EE8A80"/>
<path d="M124.743 116.27L128.002 113.311L129.031 115.041L124.68 119.066L124.743 116.27Z" fill="#EE8A80"/>
<path d="M126.852 122.11C126.964 121.622 127.063 122.576 127.388 122.194C128.347 121.036 129.743 120.916 130.576 122.194C131.408 123.472 130.695 136.049 129.37 139.996C128.488 142.616 128.015 144.706 125.758 146.302C124.846 147.006 123.736 147.407 122.584 147.446C122.011 147.453 121.448 147.295 120.96 146.993C120.473 146.69 120.082 146.254 119.834 145.737C119.128 144.092 121.653 138.16 122.542 136.246C125.328 130.223 125.519 127.801 126.852 122.11Z" fill="#EE8A80"/>
<path d="M117.52 121.566L123.282 121.509C124.105 121.562 124.929 121.432 125.695 121.128C126.633 120.579 127.335 119.701 127.662 118.663C128.481 116.545 128.551 114.271 128.869 112.054C129.186 109.837 129.863 107.507 131.542 106.017C128.481 106.426 123.078 105.466 120.715 107.973C119.474 109.307 117.28 121.566 117.52 121.566Z" fill="#2C50EE"/>
<path opacity="0.5" d="M117.52 121.566L123.282 121.509C124.105 121.562 124.929 121.432 125.695 121.128C126.633 120.579 127.335 119.701 127.662 118.663C128.481 116.545 128.551 114.271 128.869 112.054C129.186 109.837 129.863 107.507 131.542 106.017C128.481 106.426 123.078 105.466 120.715 107.973C119.474 109.307 117.28 121.566 117.52 121.566Z" fill="white"/>
<path d="M127.381 112.993C127.049 113.085 126.83 114.264 126.901 114.603L127.225 115.182L127.881 118.007L130.082 116.792L128.1 113.262C128.024 113.146 127.914 113.058 127.784 113.01C127.655 112.961 127.513 112.956 127.381 112.993V112.993Z" fill="#EE8A80"/>
<path d="M77.6772 109.879C72.5285 111.058 64.9111 127.123 64.9111 127.123L75.2439 134.184C78.2196 129.933 80.9059 125.486 83.2845 120.874C86.3385 114.476 82.9389 108.672 77.6772 109.879Z" fill="#2C50EE"/>
<path d="M85.1962 110.268C84.6037 108.976 83.9619 107.5 85.2949 107.041C86.769 106.532 94.8378 106.01 97.6167 106.963C97.9807 107.062 98.3216 107.232 98.6199 107.463C98.9181 107.694 99.1678 107.982 99.3546 108.31C99.5413 108.638 99.6615 109 99.7083 109.375C99.755 109.75 99.7273 110.13 99.6268 110.494V110.543L85.1962 110.268Z" fill="#0B1C52"/>
<path opacity="0.2" d="M80.8579 119.158L73.5156 132.998L75.2436 134.184C75.2436 134.184 78.5727 129.545 80.8861 125.534L80.8579 119.158Z" fill="#000410"/>
<path d="M108.972 116.948C110.086 122.597 107.484 136.013 107.512 157.903H78.1568C77.9664 153.483 81.1826 143.004 77.1835 122.131C77.0565 121.425 77.0001 110.021 77.6772 109.901C80.5198 109.403 83.3878 109.064 86.2679 108.884C90.4257 108.644 94.594 108.644 98.7519 108.884C100.452 109.06 103.125 110.112 104.818 110.72C107.448 111.652 108.436 114.173 108.972 116.948Z" fill="#2C50EE"/>
<path opacity="0.2" d="M101.214 122.562C101.976 127.201 105.015 133.33 108.041 136.931C108.161 134.297 108.429 131.544 108.422 129.432L101.214 122.562Z" fill="#000410"/>
<path d="M99.0974 115.585C98.3921 120.789 108.619 134.072 108.619 134.072L118.91 127.01C118.91 127.01 116.053 119.688 111.25 114.886C105.798 109.392 99.9226 109.936 99.0974 115.585Z" fill="#2C50EE"/>
<path d="M132.762 230.769H138.249L139.49 218.038H134.003L132.762 230.769Z" fill="#EE8A80"/>
<path opacity="0.2" d="M139.413 218.814L138.779 225.374H133.284L133.926 218.814H139.413Z" fill="#000410"/>
<path d="M111.116 230.769H116.604L119.361 218.038H113.874L111.116 230.769Z" fill="#EE8A80"/>
<g opacity="0.2">
<path d="M113.754 218.723H119.241L117.816 225.283H112.329L113.754 218.723Z" fill="#000410"/>
</g>
<path d="M138.553 228.305H132.565C132.441 228.319 132.326 228.376 132.24 228.467C132.154 228.557 132.101 228.674 132.092 228.799L131.006 235.084C130.944 235.327 130.969 235.585 131.077 235.813C131.186 236.04 131.37 236.222 131.599 236.326C131.664 236.337 131.731 236.337 131.796 236.326C133.954 236.284 137.079 236.115 139.794 236.115C142.975 236.115 145.719 236.333 149.443 236.333C151.7 236.333 152.328 233.382 151.383 233.121C147.087 231.906 143.582 231.779 139.872 228.806C139.503 228.493 139.037 228.316 138.553 228.305V228.305Z" fill="#0B1C52"/>
<path d="M142.911 230.346C143.616 230.346 144.322 230.247 144.526 229.929C144.584 229.845 144.616 229.745 144.616 229.643C144.616 229.541 144.584 229.441 144.526 229.357C144.432 229.208 144.286 229.1 144.117 229.053C143.2 228.806 141.296 229.901 141.204 229.95C141.18 229.962 141.161 229.982 141.149 230.006C141.138 230.031 141.135 230.058 141.141 230.084C141.144 230.11 141.156 230.134 141.174 230.153C141.191 230.172 141.214 230.185 141.239 230.19C141.79 230.295 142.35 230.347 142.911 230.346V230.346ZM143.786 229.279H144.032C144.085 229.29 144.135 229.312 144.179 229.344C144.223 229.375 144.259 229.416 144.286 229.463C144.378 229.625 144.35 229.703 144.286 229.745C144.032 230.106 142.643 230.113 141.62 229.964C142.293 229.601 143.027 229.367 143.786 229.272V229.279Z" fill="#2C50EE"/>
<path d="M141.254 230.19H141.31C141.973 229.894 143.285 228.708 143.179 228.072C143.179 227.924 143.052 227.747 142.7 227.705C142.444 227.686 142.191 227.767 141.994 227.931C141.289 228.503 141.148 229.986 141.141 230.049C141.138 230.072 141.141 230.095 141.149 230.116C141.158 230.137 141.172 230.156 141.19 230.169C141.209 230.183 141.231 230.19 141.254 230.19V230.19ZM142.594 227.966H142.672C142.904 227.966 142.918 228.086 142.925 228.114C142.989 228.489 142.093 229.421 141.416 229.823C141.474 229.202 141.72 228.613 142.121 228.136C142.256 228.028 142.422 227.969 142.594 227.966V227.966Z" fill="#2C50EE"/>
<path d="M116.985 228.305H110.82C110.697 228.32 110.583 228.377 110.498 228.468C110.413 228.558 110.362 228.675 110.355 228.799L109.269 235.084C109.21 235.333 109.24 235.595 109.355 235.823C109.47 236.052 109.662 236.233 109.896 236.334C109.955 236.341 110.014 236.341 110.073 236.334C112.224 236.291 113.275 236.122 115.983 236.122C117.655 236.122 119.792 236.341 122.098 236.341C124.405 236.341 124.701 233.389 123.756 233.128C119.524 231.927 119.235 230.303 117.88 228.693C117.768 228.568 117.63 228.468 117.475 228.401C117.321 228.334 117.153 228.301 116.985 228.305V228.305Z" fill="#0B1C52"/>
<path d="M120.207 231.045C120.44 231.077 120.677 231.061 120.903 230.999C121.13 230.938 121.342 230.83 121.526 230.684C121.591 230.595 121.626 230.488 121.626 230.377C121.626 230.267 121.591 230.159 121.526 230.07C121.484 229.993 121.426 229.925 121.355 229.873C121.285 229.82 121.203 229.784 121.117 229.767C120.313 229.576 118.797 230.614 118.733 230.656C118.713 230.672 118.697 230.692 118.687 230.716C118.678 230.739 118.674 230.765 118.677 230.79C118.681 230.815 118.693 230.838 118.71 230.856C118.728 230.873 118.751 230.885 118.775 230.889C119.246 230.994 119.726 231.046 120.207 231.045V231.045ZM120.913 230H121.068C121.118 230.009 121.165 230.029 121.206 230.058C121.247 230.087 121.282 230.125 121.308 230.169C121.427 230.388 121.357 230.473 121.308 230.508C121.075 230.812 119.953 230.819 119.128 230.684C119.658 230.32 120.263 230.079 120.898 229.978L120.913 230Z" fill="#2C50EE"/>
<path d="M118.846 230.897C119.417 230.586 120.517 229.385 120.398 228.778C120.379 228.681 120.328 228.593 120.252 228.53C120.176 228.467 120.08 228.432 119.981 228.432C119.883 228.423 119.784 228.433 119.689 228.462C119.595 228.491 119.507 228.538 119.431 228.602C118.796 229.124 118.662 230.72 118.655 230.777C118.654 230.8 118.66 230.824 118.671 230.845C118.682 230.866 118.699 230.884 118.719 230.897H118.846ZM119.953 228.672H120.01C120.179 228.672 120.193 228.771 120.2 228.806C120.271 229.167 119.565 230.077 119.001 230.508C119.045 229.883 119.27 229.284 119.65 228.785C119.735 228.713 119.842 228.673 119.953 228.672Z" fill="#2C50EE"/>
<path d="M98.7167 157.889C98.7167 157.889 124.707 168.637 130.082 176.891C126.887 197.892 121.153 221.815 121.153 221.815H111.377C111.393 211.464 112.239 201.131 113.909 190.915C115.32 165.247 69.1783 191.805 78.1428 157.889H98.7167Z" fill="#0B1C52"/>
<path opacity="0.3" d="M116.688 175.606C114.868 175.714 113.054 175.924 111.257 176.235L105.565 177.11C108.502 179.58 111.6 181.85 114.84 183.903C116.808 185.153 118.952 186.354 121.273 186.361C123.882 186.361 130.964 183.014 129.793 179.532C128.622 176.051 119.65 175.479 116.688 175.606Z" fill="#000410"/>
<path d="M107.519 157.889C107.519 157.889 131.542 160.996 144.788 168.545C148.864 170.868 148.314 178.332 148.187 183.246C147.903 196.435 145.375 209.478 140.711 221.815H132.544C132.544 221.815 132.96 208.491 132.685 186.989C132.6 180.542 119.601 178.416 106.898 177.668C101.519 177.329 96.3417 175.492 91.9499 172.364C87.5581 169.236 84.1268 164.942 82.0433 159.965L81.1758 157.889H107.519Z" fill="#0B1C52"/>
<path d="M142.693 219.626C142.735 219.626 142.164 223.489 142.164 223.489H130.879L130.568 220.043L142.693 219.626Z" fill="#2C50EE"/>
<path d="M122.097 219.626C122.139 219.626 121.06 223.489 121.06 223.489H109.775L109.98 220.043L122.097 219.626Z" fill="#2C50EE"/>
<path d="M91.7765 177.379L83.6866 237.054L82.2266 236.849L88.4686 176.927L91.7765 177.379Z" fill="#2C50EE"/>
<path d="M91.4873 179.511L83.6866 237.054L82.2266 236.849L88.2005 179.504L91.4873 179.511Z" fill="#5F6A9E"/>
<path d="M120.214 179.511H74.3691C74.3691 178.823 74.5045 178.142 74.7675 177.506C75.0305 176.87 75.416 176.293 75.902 175.806C76.3879 175.32 76.9649 174.934 77.5998 174.67C78.2348 174.407 78.9153 174.271 79.6025 174.271H114.981C115.668 174.271 116.349 174.407 116.984 174.67C117.619 174.934 118.195 175.32 118.681 175.806C119.167 176.293 119.553 176.87 119.816 177.506C120.079 178.142 120.214 178.823 120.214 179.511V179.511Z" fill="#2C50EE"/>
<path opacity="0.7" d="M120.214 179.511H74.3691C74.3691 178.823 74.5045 178.142 74.7675 177.506C75.0305 176.87 75.416 176.293 75.902 175.806C76.3879 175.32 76.9649 174.934 77.5998 174.67C78.2348 174.407 78.9153 174.271 79.6025 174.271H114.981C115.668 174.271 116.349 174.407 116.984 174.67C117.619 174.934 118.195 175.32 118.681 175.806C119.167 176.293 119.553 176.87 119.816 177.506C120.079 178.142 120.214 178.823 120.214 179.511V179.511Z" fill="white"/>
<path d="M76.4921 179.504L69.5801 237.52H71.0683L79.8282 179.504H76.4921Z" fill="#8F9BD5"/>
<path d="M118.099 179.504L125.004 237.52H123.53L114.763 179.504H118.099Z" fill="#2C50EE"/>
<path d="M118.099 179.504L125.004 237.52H123.53L114.763 179.504H118.099Z" fill="#5F6A9E"/>
<path d="M108.852 179.504L108.979 237.52H107.505L105.516 179.504H108.852Z" fill="#8F9BD5"/>
</svg>
